# Blender 3.5.1
# www.blender.org
o Rook.002
v 0.223929 0.000000 -0.387857
v -0.223929 0.000000 -0.387857
v 0.223929 0.092069 -0.387857
v -0.223929 0.092069 -0.387857
v 0.208787 0.153293 -0.361629
v -0.208787 0.153293 -0.361629
v 0.183369 0.236955 -0.317604
v -0.183369 0.236955 -0.317604
v 0.168222 0.289756 -0.291370
v -0.168222 0.289756 -0.291370
v 0.128106 0.318537 -0.221886
v -0.128106 0.318537 -0.221886
v 0.169550 0.184300 -0.293669
v -0.169550 0.184300 -0.293669
v -0.108225 0.969821 -0.187451
v 0.108225 0.969821 -0.187451
v -0.159859 1.031571 -0.276884
v 0.159859 1.031571 -0.276884
v -0.159859 1.258713 -0.276884
v 0.159859 1.258713 -0.276884
v -0.107948 1.258713 -0.186972
v 0.107948 1.258713 -0.186972
v -0.107948 1.168806 -0.186972
v 0.107948 1.168806 -0.186972
v -0.107948 1.315554 -0.186972
v -0.159859 1.315554 -0.276884
v 0.159859 1.315554 -0.276884
v 0.107948 1.315554 -0.186972
v 0.209187 1.258713 -0.191447
v 0.270391 1.258713 -0.085438
v 0.257402 1.208662 -0.107936
v 0.222176 1.208662 -0.168948
v -0.061205 1.258713 -0.276884
v 0.061205 1.258713 -0.276884
v 0.035226 1.208662 -0.276884
v -0.035226 1.208662 -0.276884
v -0.270391 1.258713 -0.085437
v -0.209187 1.258713 -0.191447
v -0.222176 1.208662 -0.168948
v -0.257402 1.208662 -0.107936
v 0.192525 1.258713 -0.040481
v 0.131320 1.258713 -0.146491
v 0.138408 1.219544 -0.134214
v 0.185437 1.219544 -0.052757
v 0.061205 1.258713 -0.186972
v -0.061205 1.258713 -0.186972
v -0.047029 1.219544 -0.186972
v 0.047029 1.219544 -0.186972
v -0.131320 1.258713 -0.146491
v -0.192525 1.258713 -0.040481
v -0.185437 1.219544 -0.052757
v -0.138408 1.219544 -0.134214
v 0.209187 1.315554 -0.191447
v 0.131320 1.315554 -0.146491
v 0.192525 1.315554 -0.040481
v 0.270391 1.315554 -0.085438
v -0.270391 1.315554 -0.085437
v -0.192525 1.315554 -0.040481
v -0.131320 1.315554 -0.146491
v -0.209187 1.315554 -0.191447
v -0.061205 1.315554 -0.276884
v -0.061205 1.315554 -0.186972
v 0.061205 1.315554 -0.186972
v 0.061205 1.315554 -0.276884
v -0.108225 0.854609 -0.187451
v 0.108225 0.854609 -0.187451
v -0.137902 0.912215 -0.238853
v 0.137902 0.912215 -0.238853
v -0.447859 -0.000000 -0.000000
v 0.447859 0.000000 0.000000
v 0.223929 -0.000000 0.387857
v -0.223929 -0.000000 0.387857
v -0.447859 0.092069 0.000000
v 0.447859 0.092069 0.000000
v 0.223929 0.092069 0.387857
v -0.223929 0.092069 0.387857
v -0.417573 0.153292 0.000000
v 0.417573 0.153293 0.000000
v 0.208787 0.153293 0.361629
v -0.208787 0.153292 0.361629
v -0.366737 0.236955 0.000000
v 0.366737 0.236955 0.000000
v 0.183369 0.236955 0.317604
v -0.183369 0.236955 0.317604
v -0.336445 0.289756 0.000000
v 0.336445 0.289757 0.000000
v 0.168222 0.289756 0.291370
v -0.168222 0.289756 0.291370
v -0.256211 0.318537 0.000000
v 0.256211 0.318537 0.000000
v 0.128106 0.318537 0.221886
v -0.128106 0.318537 0.221886
v 0.339100 0.184300 0.000000
v 0.169550 0.184300 0.293669
v -0.169550 0.184300 0.293669
v -0.339100 0.184300 0.000000
v -0.108225 0.969821 0.187451
v 0.108225 0.969821 0.187451
v 0.216449 0.969821 0.000000
v -0.216449 0.969821 0.000000
v 0.000000 0.000000 0.000000
v -0.159859 1.031571 0.276885
v 0.159859 1.031571 0.276885
v 0.319719 1.031571 0.000000
v -0.319719 1.031571 0.000000
v -0.159859 1.258713 0.276885
v 0.159859 1.258713 0.276885
v 0.319719 1.258713 0.000000
v -0.319719 1.258713 0.000000
v -0.107948 1.258713 0.186972
v 0.107948 1.258713 0.186972
v 0.215896 1.258713 0.000000
v -0.215897 1.258713 0.000000
v -0.107948 1.168806 0.186972
v 0.107948 1.168806 0.186972
v 0.215896 1.168806 0.000000
v -0.215897 1.168806 0.000000
v 0.215896 1.315554 0.000000
v 0.319719 1.315554 0.000000
v -0.319719 1.315554 0.000000
v -0.215897 1.315554 0.000000
v -0.107948 1.315554 0.186972
v -0.159859 1.315554 0.276885
v 0.159859 1.315554 0.276885
v 0.107948 1.315554 0.186972
v 0.209187 1.258713 0.191447
v 0.270391 1.258713 0.085438
v 0.257402 1.208662 0.107936
v 0.222176 1.208662 0.168949
v -0.061205 1.258713 0.276885
v 0.061205 1.258713 0.276885
v 0.035226 1.208662 0.276885
v -0.035226 1.208662 0.276885
v -0.270391 1.258713 0.085438
v -0.209187 1.258713 0.191447
v -0.222176 1.208662 0.168949
v -0.257402 1.208662 0.107936
v 0.192525 1.258713 0.040481
v 0.131320 1.258713 0.146491
v 0.138408 1.219544 0.134214
v 0.185437 1.219544 0.052758
v 0.061205 1.258713 0.186972
v -0.061205 1.258713 0.186972
v -0.047029 1.219544 0.186972
v 0.047029 1.219544 0.186972
v -0.131320 1.258713 0.146491
v -0.192525 1.258713 0.040481
v -0.185437 1.219544 0.052757
v -0.138408 1.219544 0.134214
v 0.209187 1.315554 0.191447
v 0.131320 1.315554 0.146491
v 0.192525 1.315554 0.040481
v 0.270391 1.315554 0.085438
v -0.270391 1.315554 0.085438
v -0.192525 1.315554 0.040481
v -0.131320 1.315554 0.146491
v -0.209187 1.315554 0.191447
v -0.061205 1.315554 0.276885
v -0.061205 1.315554 0.186972
v 0.061205 1.315554 0.186972
v 0.061205 1.315554 0.276885
v -0.216449 0.854608 0.000000
v 0.216449 0.854609 0.000000
v -0.108225 0.854609 0.187451
v 0.108225 0.854609 0.187451
v 0.275804 0.912215 0.000000
v -0.275804 0.912215 0.000000
v -0.137902 0.912215 0.238853
v 0.137902 0.912215 0.238853
v -0.000000 1.168806 0.000000
vn -0.8660 -0.0000 -0.5000
vn -0.0000 -0.0000 -1.0000
vn 0.8660 -0.0000 -0.5000
vn -0.7961 0.3938 -0.4596
vn -0.0000 0.3938 -0.9192
vn 0.7961 0.3938 -0.4596
vn -0.7884 -0.4138 -0.4552
vn -0.0000 -0.4138 -0.9104
vn 0.7884 -0.4138 -0.4552
vn -0.7756 0.4450 -0.4478
vn -0.0000 0.4450 -0.8956
vn 0.7756 0.4450 -0.4478
vn -0.3314 0.9239 -0.1913
vn -0.0000 0.9239 -0.3827
vn 0.3314 0.9239 -0.1913
vn 0.3595 0.9098 -0.2075
vn -0.0000 0.9098 -0.4151
vn -0.3595 0.9098 -0.2075
vn -0.6462 0.6658 -0.3731
vn -0.0000 0.6658 -0.7461
vn 0.6462 0.6658 -0.3731
vn -0.0000 -1.0000 -0.0000
vn -0.0000 -0.8229 -0.5682
vn -0.4921 -0.8229 -0.2841
vn 0.4921 -0.8229 -0.2841
vn 0.8660 -0.0000 0.5000
vn -0.8660 -0.0000 0.5000
vn -0.5000 -0.0000 0.8660
vn -0.0000 1.0000 -0.0000
vn -0.0000 -0.0000 1.0000
vn 0.5000 -0.0000 -0.8660
vn 1.0000 -0.0000 -0.0000
vn -1.0000 -0.0000 -0.0000
vn 0.5000 -0.0000 0.8660
vn -0.5000 -0.0000 -0.8660
vn 0.8642 0.0641 -0.4990
vn -0.0000 0.0641 -0.9979
vn -0.8642 0.0641 -0.4990
vn 0.6462 -0.6658 -0.3731
vn -0.0000 -0.6658 -0.7461
vn -0.6462 -0.6658 -0.3731
vn -0.7961 0.3938 0.4596
vn -0.0000 0.3938 0.9192
vn 0.7961 0.3938 0.4596
vn -0.7884 -0.4138 0.4552
vn -0.0000 -0.4138 0.9104
vn 0.7884 -0.4138 0.4552
vn -0.7756 0.4450 0.4478
vn -0.0000 0.4450 0.8956
vn 0.7756 0.4450 0.4478
vn -0.3314 0.9239 0.1913
vn -0.0000 0.9239 0.3827
vn 0.3314 0.9239 0.1913
vn 0.3595 0.9098 0.2075
vn -0.0000 0.9098 0.4151
vn -0.3595 0.9098 0.2075
vn -0.6462 0.6658 0.3731
vn -0.0000 0.6658 0.7461
vn 0.6462 0.6658 0.3731
vn -0.0000 -0.8229 0.5682
vn -0.4921 -0.8229 0.2841
vn 0.4921 -0.8229 0.2841
vn 0.8642 0.0641 0.4990
vn -0.0000 0.0641 0.9979
vn -0.8642 0.0641 0.4990
vn 0.6462 -0.6658 0.3731
vn -0.0000 -0.6658 0.7461
vn -0.6462 -0.6658 0.3731
vt 0.124289 0.323450
vt 0.323902 0.178470
vt 0.124290 0.323449
vt 0.323901 0.178471
vt 0.154093 0.364486
vt 0.353706 0.219506
vt 0.154094 0.364485
vt 0.353706 0.219506
vt 0.182403 0.389270
vt 0.368518 0.254094
vt 0.182404 0.389269
vt 0.368518 0.254094
vt 0.236638 0.440116
vt 0.400095 0.321396
vt 0.236639 0.440115
vt 0.400094 0.321396
vt 0.262475 0.461491
vt 0.412430 0.352578
vt 0.262476 0.461490
vt 0.412430 0.352578
vt 0.304701 0.482025
vt 0.418896 0.399085
vt 0.418896 0.399085
vt 0.304702 0.482025
vt 0.375212 0.300090
vt 0.224073 0.409863
vt 0.375211 0.300090
vt 0.224074 0.409862
vt 0.537442 0.783834
vt 0.633915 0.713766
vt 0.537442 0.783834
vt 0.633914 0.713765
vt 0.549610 0.848988
vt 0.692110 0.745490
vt 0.549610 0.848988
vt 0.692110 0.745490
vt 0.623140 0.950227
vt 0.765640 0.846728
vt 0.623140 0.950227
vt 0.765640 0.846728
vt 0.974672 0.139201
vt 0.516724 0.139201
vt 0.974672 0.139201
vt 0.516724 0.139201
vt 0.516725 0.329908
vt 0.974672 0.329908
vt 0.516724 0.329908
vt 0.974673 0.329908
vt 0.516724 0.018634
vt 0.316881 0.964480
vt 0.065970 0.567227
vt 0.974672 0.018633
vt 0.641540 0.975561
vt 0.134825 0.436205
vt 0.464777 0.958599
vt 0.784040 0.872062
vt 0.134825 0.436205
vt 0.464777 0.958599
vt 0.641540 0.975561
vt 0.784041 0.872063
vt 0.974672 0.018633
vt 0.065970 0.567227
vt 0.316882 0.964480
vt 0.516724 0.018633
vt 0.721669 0.878665
vt 0.346397 0.771174
vt 0.667111 0.918291
vt 0.253205 0.623630
vt 0.662487 0.887573
vt 0.693888 0.864766
vt 0.721669 0.878664
vt 0.346396 0.771174
vt 0.253205 0.623630
vt 0.667111 0.918291
vt 0.662487 0.887572
vt 0.693888 0.864766
vt 0.721669 0.878665
vt 0.346396 0.771174
vt 0.667111 0.918291
vt 0.253205 0.623630
vt 0.662487 0.887573
vt 0.693888 0.864766
vt 0.615874 0.139201
vt 0.144830 0.692081
vt 0.875522 0.139201
vt 0.238022 0.839626
vt 0.845453 0.222285
vt 0.645942 0.222285
vt 0.615874 0.139201
vt 0.144830 0.692081
vt 0.238021 0.839626
vt 0.875522 0.139201
vt 0.845454 0.222285
vt 0.645943 0.222285
vt 0.615875 0.139201
vt 0.144830 0.692081
vt 0.875522 0.139202
vt 0.238021 0.839626
vt 0.845455 0.222286
vt 0.645943 0.222286
vt 0.389670 0.839687
vt 0.740070 0.903999
vt 0.875522 0.018633
vt 0.281295 0.908138
vt 0.615874 0.018633
vt 0.101557 0.623569
vt 0.685511 0.943625
vt 0.209932 0.555118
vt 0.389670 0.839686
vt 0.740069 0.903999
vt 0.875522 0.018634
vt 0.281295 0.908138
vt 0.615875 0.018634
vt 0.101557 0.623569
vt 0.685511 0.943625
vt 0.209932 0.555118
vt 0.740070 0.903999
vt 0.389670 0.839687
vt 0.281295 0.908138
vt 0.875522 0.018633
vt 0.101557 0.623569
vt 0.615874 0.018633
vt 0.209932 0.555118
vt 0.685511 0.943625
vt 0.583929 0.644943
vt 0.487456 0.715011
vt 0.583929 0.644943
vt 0.487456 0.715012
vt 0.622149 0.669747
vt 0.499222 0.759030
vt 0.622149 0.669747
vt 0.499222 0.759030
vt 0.323903 0.178470
vt 0.124289 0.323450
vt 0.124289 0.323450
vt 0.323902 0.178470
vt 0.124290 0.323449
vt 0.323901 0.178471
vt 0.353707 0.219506
vt 0.154093 0.364486
vt 0.154093 0.364486
vt 0.353706 0.219506
vt 0.154094 0.364485
vt 0.353706 0.219506
vt 0.368519 0.254094
vt 0.182404 0.389270
vt 0.182403 0.389270
vt 0.368518 0.254094
vt 0.182404 0.389269
vt 0.368518 0.254094
vt 0.400095 0.321396
vt 0.236638 0.440115
vt 0.236638 0.440116
vt 0.400095 0.321396
vt 0.236639 0.440115
vt 0.400094 0.321396
vt 0.412431 0.352577
vt 0.262475 0.461491
vt 0.262475 0.461491
vt 0.412430 0.352578
vt 0.412430 0.352578
vt 0.262476 0.461490
vt 0.418897 0.399085
vt 0.304702 0.482025
vt 0.418896 0.399085
vt 0.304701 0.482025
vt 0.418896 0.399085
vt 0.304702 0.482025
vt 0.224073 0.409862
vt 0.375212 0.300090
vt 0.224073 0.409863
vt 0.375211 0.300090
vt 0.224074 0.409862
vt 0.375213 0.300089
vt 0.537442 0.783834
vt 0.633915 0.713766
vt 0.537442 0.783834
vt 0.633914 0.713765
vt 0.537442 0.783834
vt 0.633915 0.713765
vt 0.098540 0.078090
vt 0.549610 0.848988
vt 0.692110 0.745490
vt 0.549610 0.848988
vt 0.692110 0.745490
vt 0.549610 0.848988
vt 0.692110 0.745490
vt 0.623140 0.950227
vt 0.765640 0.846728
vt 0.623140 0.950227
vt 0.765640 0.846728
vt 0.623140 0.950227
vt 0.765640 0.846728
vt 0.974672 0.139201
vt 0.516724 0.139201
vt 0.974672 0.139201
vt 0.516724 0.139201
vt 0.516724 0.139201
vt 0.974673 0.139202
vt 0.974672 0.329908
vt 0.516725 0.329908
vt 0.974673 0.329908
vt 0.516724 0.329908
vt 0.516724 0.329908
vt 0.974673 0.329909
vt 0.065970 0.567227
vt 0.516724 0.018633
vt 0.134825 0.436205
vt 0.641540 0.975561
vt 0.464776 0.958599
vt 0.784040 0.872063
vt 0.316881 0.964480
vt 0.974673 0.018634
vt 0.516724 0.018634
vt 0.316881 0.964480
vt 0.065970 0.567227
vt 0.974672 0.018633
vt 0.464777 0.958599
vt 0.134825 0.436205
vt 0.641540 0.975561
vt 0.784040 0.872062
vt 0.134825 0.436205
vt 0.464777 0.958599
vt 0.641540 0.975561
vt 0.784041 0.872063
vt 0.974672 0.018633
vt 0.065970 0.567227
vt 0.316882 0.964480
vt 0.516724 0.018633
vt 0.721669 0.878665
vt 0.346397 0.771174
vt 0.667111 0.918291
vt 0.253205 0.623630
vt 0.662487 0.887573
vt 0.693888 0.864766
vt 0.721669 0.878664
vt 0.346396 0.771174
vt 0.253205 0.623630
vt 0.667111 0.918291
vt 0.662487 0.887572
vt 0.693888 0.864766
vt 0.721669 0.878665
vt 0.346396 0.771174
vt 0.667111 0.918291
vt 0.253205 0.623630
vt 0.662487 0.887573
vt 0.693888 0.864766
vt 0.615874 0.139201
vt 0.144830 0.692081
vt 0.875522 0.139201
vt 0.238022 0.839626
vt 0.845453 0.222285
vt 0.645942 0.222285
vt 0.615874 0.139201
vt 0.144830 0.692081
vt 0.238021 0.839626
vt 0.875522 0.139201
vt 0.845454 0.222285
vt 0.645943 0.222285
vt 0.615875 0.139201
vt 0.144830 0.692081
vt 0.875522 0.139202
vt 0.238021 0.839626
vt 0.845455 0.222286
vt 0.645943 0.222286
vt 0.389670 0.839687
vt 0.740070 0.903999
vt 0.875522 0.018633
vt 0.281295 0.908138
vt 0.615874 0.018633
vt 0.101557 0.623569
vt 0.685511 0.943625
vt 0.209932 0.555118
vt 0.389670 0.839686
vt 0.740069 0.903999
vt 0.875522 0.018634
vt 0.281295 0.908138
vt 0.615875 0.018634
vt 0.101557 0.623569
vt 0.685511 0.943625
vt 0.209932 0.555118
vt 0.740070 0.903999
vt 0.389670 0.839687
vt 0.281295 0.908138
vt 0.875522 0.018633
vt 0.101557 0.623569
vt 0.615874 0.018633
vt 0.209932 0.555118
vt 0.685511 0.943625
vt 0.583929 0.644943
vt 0.487456 0.715012
vt 0.583929 0.644943
vt 0.487456 0.715011
vt 0.583929 0.644943
vt 0.487456 0.715012
vt 0.499222 0.759030
vt 0.622149 0.669747
vt 0.622149 0.669747
vt 0.499222 0.759030
vt 0.622149 0.669747
vt 0.499222 0.759030
vt 0.745698 0.726502
s 0
f 69/133/1 4/7/1 2/3/1
f 2/4/2 3/5/2 1/1/2
f 1/2/3 74/140/3 70/134/3
f 73/139/4 6/11/4 4/7/4
f 4/8/5 5/9/5 3/5/5
f 3/6/6 78/146/6 74/140/6
f 14/28/7 81/151/7 8/15/7
f 14/27/8 7/13/8 13/26/8
f 13/25/9 82/152/9 93/169/9
f 81/151/10 10/19/10 8/15/10
f 8/16/11 9/17/11 7/13/11
f 82/152/12 9/18/12 86/158/12
f 85/157/13 12/24/13 10/19/13
f 10/20/14 11/21/14 9/17/14
f 9/18/15 90/164/15 86/158/15
f 5/10/16 93/169/16 78/146/16
f 6/12/17 13/26/17 5/9/17
f 77/145/18 14/28/18 6/11/18
f 167/297/19 15/29/19 67/130/19
f 67/129/20 16/31/20 68/132/20
f 16/32/21 166/296/21 68/131/21
f 69/133/22 2/3/22 101/181/22
f 2/4/22 1/1/22 101/181/22
f 70/134/22 101/181/22 1/2/22
f 15/30/23 18/35/23 16/31/23
f 100/180/24 17/33/24 15/29/24
f 99/179/25 18/36/25 104/186/25
f 30/67/3 119/209/3 108/192/3
f 21/42/26 59/113/26 49/95/26
f 42/85/27 28/61/27 22/43/27
f 19/37/1 60/115/1 26/53/1
f 35/75/2 20/39/2 18/35/2
f 32/70/3 20/40/3 29/65/3
f 39/81/1 19/37/1 17/33/1
f 31/69/3 108/192/3 104/186/3
f 49/96/28 60/116/28 38/80/28
f 57/109/29 121/212/29 58/112/29
f 47/93/30 21/41/30 23/46/30
f 51/99/26 113/199/26 117/205/26
f 36/76/2 19/38/2 33/71/2
f 40/82/1 109/193/1 37/77/1
f 17/34/2 35/75/2 18/35/2
f 50/97/26 121/213/26 113/199/26
f 105/187/1 39/81/1 17/33/1
f 18/36/3 31/69/3 104/186/3
f 37/78/31 58/112/31 50/98/31
f 43/87/27 22/43/27 24/48/27
f 52/100/26 117/205/26 23/45/26
f 24/47/30 47/93/30 23/46/30
f 21/42/26 52/100/26 23/45/26
f 112/198/27 44/88/27 116/204/27
f 44/88/27 24/48/27 116/204/27
f 22/44/30 48/94/30 24/47/30
f 30/67/3 32/70/3 29/65/3
f 33/71/2 35/75/2 36/76/2
f 38/79/1 40/82/1 37/77/1
f 42/85/27 44/88/27 41/83/27
f 46/92/30 48/94/30 45/89/30
f 49/95/26 51/99/26 52/100/26
f 42/86/29 30/68/29 29/66/29
f 50/98/29 38/80/29 37/78/29
f 46/91/29 34/73/29 33/72/29
f 56/108/29 118/206/29 119/208/29
f 64/123/29 28/62/29 27/57/29
f 61/118/29 25/50/29 62/119/29
f 60/116/29 25/51/29 26/54/29
f 53/101/29 28/63/29 54/104/29
f 112/198/27 55/105/27 41/83/27
f 19/38/2 61/117/2 33/71/2
f 33/72/32 62/119/32 46/91/32
f 45/90/33 64/123/33 34/73/33
f 46/92/30 25/52/30 21/41/30
f 34/74/2 27/59/2 20/39/2
f 22/44/30 63/122/30 45/89/30
f 109/193/1 57/110/1 37/77/1
f 29/66/34 54/104/34 42/86/34
f 41/84/35 56/108/35 30/68/35
f 20/40/3 53/102/3 29/65/3
f 11/22/36 163/291/36 90/164/36
f 12/23/37 66/128/37 11/21/37
f 162/290/38 12/24/38 89/163/38
f 68/131/39 163/291/39 66/127/39
f 65/125/40 68/132/40 66/128/40
f 167/297/41 65/126/41 162/290/41
f 117/205/29 170/302/29 23/45/29
f 23/46/29 170/302/29 24/47/29
f 24/48/29 170/302/29 116/204/29
f 76/143/27 69/133/27 72/137/27
f 75/141/30 72/138/30 71/135/30
f 74/140/26 71/136/26 70/134/26
f 80/149/42 73/139/42 76/143/42
f 75/141/43 80/150/43 76/144/43
f 78/146/44 75/142/44 74/140/44
f 95/173/45 81/151/45 96/174/45
f 83/153/46 95/172/46 94/171/46
f 82/152/47 94/170/47 93/169/47
f 84/155/48 85/157/48 81/151/48
f 87/159/49 84/156/49 83/153/49
f 82/152/50 87/160/50 83/154/50
f 88/162/51 89/163/51 85/157/51
f 87/159/52 92/167/52 88/161/52
f 90/164/53 87/160/53 86/158/53
f 93/169/54 79/148/54 78/146/54
f 94/171/55 80/150/55 79/147/55
f 95/173/56 77/145/56 80/149/56
f 168/299/57 100/180/57 167/297/57
f 169/301/58 97/176/58 168/298/58
f 166/296/59 98/178/59 169/300/59
f 69/133/22 101/181/22 72/137/22
f 72/138/22 101/181/22 71/135/22
f 70/134/22 71/136/22 101/181/22
f 103/184/60 97/176/60 98/177/60
f 102/182/61 100/180/61 97/175/61
f 99/179/62 103/185/62 98/178/62
f 119/209/26 127/232/26 108/192/26
f 156/278/3 110/195/3 146/260/3
f 125/226/1 139/250/1 111/196/1
f 106/188/27 157/280/27 135/244/27
f 107/190/30 132/240/30 103/184/30
f 107/191/26 129/235/26 126/230/26
f 136/246/27 106/188/27 135/244/27
f 108/192/26 128/234/26 104/186/26
f 157/281/35 146/261/35 135/245/35
f 154/274/29 121/212/29 120/210/29
f 110/194/2 144/258/2 114/200/2
f 113/199/3 148/264/3 117/205/3
f 106/189/30 133/241/30 130/236/30
f 109/193/27 137/247/27 134/242/27
f 103/184/30 133/241/30 102/183/30
f 121/213/3 147/262/3 113/199/3
f 136/246/27 105/187/27 102/182/27
f 103/185/26 128/234/26 129/235/26
f 155/277/34 134/243/34 147/263/34
f 111/196/1 140/252/1 115/202/1
f 117/205/3 149/265/3 114/201/3
f 115/203/2 144/258/2 145/259/2
f 110/195/3 149/265/3 146/260/3
f 112/198/1 141/253/1 138/248/1
f 115/202/1 141/253/1 116/204/1
f 111/197/2 145/259/2 142/254/2
f 129/235/26 127/232/26 126/230/26
f 130/236/30 132/240/30 131/239/30
f 137/247/27 135/244/27 134/242/27
f 141/253/1 139/250/1 138/248/1
f 145/259/2 143/257/2 142/254/2
f 146/260/3 148/264/3 147/262/3
f 127/233/29 139/251/29 126/231/29
f 135/245/29 147/263/29 134/243/29
f 131/238/29 143/256/29 130/237/29
f 118/206/29 153/273/29 119/208/29
f 125/227/29 161/288/29 124/222/29
f 158/283/29 122/215/29 123/218/29
f 122/216/29 157/281/29 123/219/29
f 150/266/29 125/228/29 124/223/29
f 152/270/1 112/198/1 138/248/1
f 158/282/30 106/189/30 130/236/30
f 159/284/32 130/237/32 143/256/32
f 161/288/33 142/255/33 131/238/33
f 122/217/2 143/257/2 110/194/2
f 124/224/30 131/239/30 107/190/30
f 160/287/2 111/197/2 142/254/2
f 154/275/27 109/193/27 134/242/27
f 151/269/31 126/231/31 139/251/31
f 153/273/28 138/249/28 127/233/28
f 150/267/26 107/191/26 126/230/26
f 90/164/63 165/294/63 91/165/63
f 92/167/64 165/295/64 164/292/64
f 92/168/65 162/290/65 89/163/65
f 165/294/66 166/296/66 169/300/66
f 165/295/67 168/298/67 164/292/67
f 164/293/68 167/297/68 162/290/68
f 117/205/29 114/201/29 170/302/29
f 114/200/29 115/203/29 170/302/29
f 115/202/29 116/204/29 170/302/29
f 69/133/1 73/139/1 4/7/1
f 2/4/2 4/8/2 3/5/2
f 1/2/3 3/6/3 74/140/3
f 73/139/4 77/145/4 6/11/4
f 4/8/5 6/12/5 5/9/5
f 3/6/6 5/10/6 78/146/6
f 14/28/7 96/174/7 81/151/7
f 14/27/8 8/16/8 7/13/8
f 13/25/9 7/14/9 82/152/9
f 81/151/10 85/157/10 10/19/10
f 8/16/11 10/20/11 9/17/11
f 82/152/12 7/14/12 9/18/12
f 85/157/13 89/163/13 12/24/13
f 10/20/14 12/23/14 11/21/14
f 9/18/15 11/22/15 90/164/15
f 5/10/16 13/25/16 93/169/16
f 6/12/17 14/27/17 13/26/17
f 77/145/18 96/174/18 14/28/18
f 167/297/19 100/180/19 15/29/19
f 67/129/20 15/30/20 16/31/20
f 16/32/21 99/179/21 166/296/21
f 15/30/23 17/34/23 18/35/23
f 100/180/24 105/187/24 17/33/24
f 99/179/25 16/32/25 18/36/25
f 30/67/3 56/107/3 119/209/3
f 21/42/26 25/49/26 59/113/26
f 42/85/27 54/103/27 28/61/27
f 19/37/1 38/79/1 60/115/1
f 35/75/2 34/74/2 20/39/2
f 32/70/3 18/36/3 20/40/3
f 39/81/1 38/79/1 19/37/1
f 31/69/3 30/67/3 108/192/3
f 49/96/28 59/114/28 60/116/28
f 57/109/29 120/210/29 121/212/29
f 47/93/30 46/92/30 21/41/30
f 51/99/26 50/97/26 113/199/26
f 36/76/2 17/34/2 19/38/2
f 40/82/1 105/187/1 109/193/1
f 17/34/2 36/76/2 35/75/2
f 50/97/26 58/111/26 121/213/26
f 105/187/1 40/82/1 39/81/1
f 18/36/3 32/70/3 31/69/3
f 37/78/31 57/109/31 58/112/31
f 43/87/27 42/85/27 22/43/27
f 52/100/26 51/99/26 117/205/26
f 24/47/30 48/94/30 47/93/30
f 21/42/26 49/95/26 52/100/26
f 112/198/27 41/83/27 44/88/27
f 44/88/27 43/87/27 24/48/27
f 22/44/30 45/89/30 48/94/30
f 30/67/3 31/69/3 32/70/3
f 33/71/2 34/74/2 35/75/2
f 38/79/1 39/81/1 40/82/1
f 42/85/27 43/87/27 44/88/27
f 46/92/30 47/93/30 48/94/30
f 49/95/26 50/97/26 51/99/26
f 42/86/29 41/84/29 30/68/29
f 50/98/29 49/96/29 38/80/29
f 46/91/29 45/90/29 34/73/29
f 56/108/29 55/106/29 118/206/29
f 64/123/29 63/121/29 28/62/29
f 61/118/29 26/55/29 25/50/29
f 60/116/29 59/114/29 25/51/29
f 53/101/29 27/58/29 28/63/29
f 112/198/27 118/207/27 55/105/27
f 19/38/2 26/56/2 61/117/2
f 33/72/32 61/118/32 62/119/32
f 45/90/33 63/121/33 64/123/33
f 46/92/30 62/120/30 25/52/30
f 34/74/2 64/124/2 27/59/2
f 22/44/30 28/64/30 63/122/30
f 109/193/1 120/211/1 57/110/1
f 29/66/34 53/101/34 54/104/34
f 41/84/35 55/106/35 56/108/35
f 20/40/3 27/60/3 53/102/3
f 11/22/36 66/127/36 163/291/36
f 12/23/37 65/125/37 66/128/37
f 162/290/38 65/126/38 12/24/38
f 68/131/39 166/296/39 163/291/39
f 65/125/40 67/129/40 68/132/40
f 167/297/41 67/130/41 65/126/41
f 76/143/27 73/139/27 69/133/27
f 75/141/30 76/144/30 72/138/30
f 74/140/26 75/142/26 71/136/26
f 80/149/42 77/145/42 73/139/42
f 75/141/43 79/147/43 80/150/43
f 78/146/44 79/148/44 75/142/44
f 95/173/45 84/155/45 81/151/45
f 83/153/46 84/156/46 95/172/46
f 82/152/47 83/154/47 94/170/47
f 84/155/48 88/162/48 85/157/48
f 87/159/49 88/161/49 84/156/49
f 82/152/50 86/158/50 87/160/50
f 88/162/51 92/168/51 89/163/51
f 87/159/52 91/166/52 92/167/52
f 90/164/53 91/165/53 87/160/53
f 93/169/54 94/170/54 79/148/54
f 94/171/55 95/172/55 80/150/55
f 95/173/56 96/174/56 77/145/56
f 168/299/57 97/175/57 100/180/57
f 169/301/58 98/177/58 97/176/58
f 166/296/59 99/179/59 98/178/59
f 103/184/60 102/183/60 97/176/60
f 102/182/61 105/187/61 100/180/61
f 99/179/62 104/186/62 103/185/62
f 119/209/26 153/272/26 127/232/26
f 156/278/3 122/214/3 110/195/3
f 125/226/1 151/268/1 139/250/1
f 106/188/27 123/220/27 157/280/27
f 107/190/30 131/239/30 132/240/30
f 107/191/26 103/185/26 129/235/26
f 136/246/27 102/182/27 106/188/27
f 108/192/26 127/232/26 128/234/26
f 157/281/35 156/279/35 146/261/35
f 154/274/29 155/277/29 121/212/29
f 110/194/2 143/257/2 144/258/2
f 113/199/3 147/262/3 148/264/3
f 106/189/30 102/183/30 133/241/30
f 109/193/27 105/187/27 137/247/27
f 103/184/30 132/240/30 133/241/30
f 121/213/3 155/276/3 147/262/3
f 136/246/27 137/247/27 105/187/27
f 103/185/26 104/186/26 128/234/26
f 155/277/34 154/274/34 134/243/34
f 111/196/1 139/250/1 140/252/1
f 117/205/3 148/264/3 149/265/3
f 115/203/2 114/200/2 144/258/2
f 110/195/3 114/201/3 149/265/3
f 112/198/1 116/204/1 141/253/1
f 115/202/1 140/252/1 141/253/1
f 111/197/2 115/203/2 145/259/2
f 129/235/26 128/234/26 127/232/26
f 130/236/30 133/241/30 132/240/30
f 137/247/27 136/246/27 135/244/27
f 141/253/1 140/252/1 139/250/1
f 145/259/2 144/258/2 143/257/2
f 146/260/3 149/265/3 148/264/3
f 127/233/29 138/249/29 139/251/29
f 135/245/29 146/261/29 147/263/29
f 131/238/29 142/255/29 143/256/29
f 118/206/29 152/271/29 153/273/29
f 125/227/29 160/286/29 161/288/29
f 158/283/29 159/284/29 122/215/29
f 122/216/29 156/279/29 157/281/29
f 150/266/29 151/269/29 125/228/29
f 152/270/1 118/207/1 112/198/1
f 158/282/30 123/221/30 106/189/30
f 159/284/32 158/283/32 130/237/32
f 161/288/33 160/286/33 142/255/33
f 122/217/2 159/285/2 143/257/2
f 124/224/30 161/289/30 131/239/30
f 160/287/2 125/229/2 111/197/2
f 154/275/27 120/211/27 109/193/27
f 151/269/31 150/266/31 126/231/31
f 153/273/28 152/271/28 138/249/28
f 150/267/26 124/225/26 107/191/26
f 90/164/63 163/291/63 165/294/63
f 92/167/64 91/166/64 165/295/64
f 92/168/65 164/293/65 162/290/65
f 165/294/66 163/291/66 166/296/66
f 165/295/67 169/301/67 168/298/67
f 164/293/68 168/299/68 167/297/68
