# Blender 3.5.1
# www.blender.org
o Pawn.008
v 0.188977 -0.000000 0.327318
v 0.052845 0.676872 0.091530
v -0.188977 -0.000000 0.327318
v -0.052845 0.676872 0.091530
v 0.188977 0.077699 0.327318
v -0.188977 0.077699 0.327318
v 0.176198 0.129366 0.305184
v -0.176198 0.129366 0.305184
v 0.154748 0.199970 0.268031
v -0.154748 0.199970 0.268031
v 0.141965 0.244530 0.245891
v -0.141965 0.244530 0.245891
v 0.108110 0.268818 0.187253
v -0.108110 0.268818 0.187253
v 0.143086 0.155533 0.247832
v -0.143086 0.155533 0.247832
v 0.110587 0.735880 0.191543
v -0.110587 0.735880 0.191543
v 0.130082 0.695470 0.225309
v 0.125956 0.676872 0.218162
v -0.130082 0.695470 0.225309
v -0.125956 0.676872 0.218162
v 0.070308 0.459035 0.121777
v -0.070308 0.459035 0.121777
v 0.066282 1.181708 0.114805
v 0.114804 1.095233 0.198848
v 0.132565 0.977106 0.229609
v 0.114804 0.858979 0.198848
v 0.066282 0.772504 0.114805
v -0.066283 1.181708 0.114805
v -0.114805 1.095233 0.198847
v -0.132565 0.977106 0.229609
v -0.114805 0.858979 0.198848
v -0.066283 0.772504 0.114805
v -0.377955 -0.000000 -0.000000
v -0.105690 0.676872 0.000000
v 0.377955 0.000000 0.000000
v 0.105690 0.676872 0.000000
v 0.188977 0.000000 -0.327318
v 0.052845 0.676872 -0.091530
v -0.188977 0.000000 -0.327318
v -0.052845 0.676872 -0.091530
v -0.377955 0.077699 0.000000
v 0.377955 0.077699 0.000000
v 0.188977 0.077699 -0.327318
v -0.188977 0.077699 -0.327318
v -0.352396 0.129366 0.000000
v 0.352396 0.129366 0.000000
v 0.176198 0.129366 -0.305184
v -0.176198 0.129366 -0.305184
v -0.309495 0.199970 0.000000
v 0.309495 0.199970 0.000000
v 0.154748 0.199970 -0.268031
v -0.154748 0.199970 -0.268031
v -0.283931 0.244530 0.000000
v 0.283931 0.244530 0.000000
v 0.141965 0.244530 -0.245891
v -0.141965 0.244530 -0.245891
v -0.216221 0.268818 0.000000
v 0.216221 0.268818 0.000000
v 0.108110 0.268818 -0.187253
v -0.108110 0.268818 -0.187253
v 0.286172 0.155533 0.000000
v 0.143086 0.155533 -0.247832
v -0.143086 0.155533 -0.247832
v -0.286172 0.155533 0.000000
v -0.221174 0.735880 0.000000
v 0.221174 0.735880 0.000000
v 0.110587 0.735880 -0.191543
v -0.110587 0.735880 -0.191543
v -0.132074 0.772575 0.000000
v -0.251912 0.676872 0.000000
v -0.260165 0.695470 0.000000
v 0.260165 0.695470 0.000000
v 0.251912 0.676872 0.000000
v 0.130082 0.695470 -0.225309
v 0.125956 0.676872 -0.218162
v -0.130082 0.695470 -0.225309
v -0.125956 0.676872 -0.218162
v -0.140616 0.459035 0.000000
v 0.140615 0.459035 0.000000
v 0.070308 0.459035 -0.121777
v -0.070308 0.459035 -0.121777
v -0.132565 1.181708 0.000000
v -0.229610 1.095233 0.000000
v -0.265130 0.977106 0.000000
v -0.229610 0.858979 0.000000
v -0.000000 1.213360 0.000000
v 0.132565 1.181708 0.000000
v 0.229609 1.095233 0.000000
v 0.265130 0.977106 0.000000
v 0.229609 0.858979 0.000000
v 0.132565 0.772504 0.000000
v 0.066282 1.181708 -0.114805
v 0.114804 1.095233 -0.198847
v 0.132565 0.977106 -0.229609
v 0.114804 0.858979 -0.198847
v 0.066282 0.772504 -0.114805
v -0.066283 1.181708 -0.114805
v -0.114805 1.095233 -0.198847
v -0.132565 0.977106 -0.229609
v -0.114805 0.858979 -0.198847
v -0.066283 0.772504 -0.114805
v 0.000000 0.000000 0.000000
vn 0.8578 0.1375 0.4952
vn -0.0000 0.1375 0.9905
vn -0.8578 0.1375 0.4952
vn -0.8660 -0.0000 0.5000
vn -0.0000 -0.0000 1.0000
vn 0.8660 -0.0000 0.5000
vn -0.7961 0.3938 0.4596
vn -0.0000 0.3938 0.9192
vn 0.7961 0.3938 0.4596
vn -0.7884 -0.4138 0.4552
vn -0.0000 -0.4138 0.9104
vn 0.7884 -0.4138 0.4552
vn -0.7756 0.4450 0.4478
vn -0.0000 0.4450 0.8956
vn 0.7756 0.4450 0.4478
vn -0.3314 0.9239 0.1913
vn -0.0000 0.9239 0.3827
vn 0.3314 0.9239 0.1913
vn 0.3595 0.9098 0.2075
vn -0.0000 0.9098 0.4151
vn -0.3595 0.9098 0.2075
vn -0.0000 -1.0000 -0.0000
vn -0.0000 0.6412 0.7674
vn 0.6646 0.6412 0.3837
vn 0.3730 0.9025 0.2154
vn -0.6646 0.6412 0.3837
vn -0.0000 0.9025 0.4307
vn -0.3720 0.9033 0.2137
vn 0.8084 -0.3587 0.4667
vn -0.0000 -0.3587 0.9334
vn -0.8084 -0.3587 0.4667
vn -0.8189 0.3255 0.4728
vn -0.0000 0.3255 0.9456
vn 0.8189 0.3255 0.4728
vn 0.2302 0.9640 0.1329
vn 0.8381 -0.2520 0.4839
vn 0.6210 0.6969 0.3586
vn 0.6210 -0.6969 0.3586
vn 0.8381 0.2520 0.4839
vn -0.0000 -0.2520 0.9677
vn -0.0000 0.6969 0.7171
vn -0.0000 -0.6969 0.7171
vn -0.0000 0.2520 0.9677
vn -0.0000 0.9640 0.2658
vn -0.8381 -0.2520 0.4839
vn -0.6210 0.6969 0.3586
vn -0.6200 -0.6998 0.3548
vn -0.8381 0.2520 0.4839
vn -0.2302 0.9640 0.1329
vn 0.8578 0.1375 -0.4952
vn -0.0000 0.1375 -0.9905
vn -0.8578 0.1375 -0.4952
vn -0.8660 -0.0000 -0.5000
vn -0.0000 -0.0000 -1.0000
vn 0.8660 -0.0000 -0.5000
vn -0.7961 0.3938 -0.4596
vn -0.0000 0.3938 -0.9192
vn 0.7961 0.3938 -0.4596
vn -0.7884 -0.4138 -0.4552
vn -0.0000 -0.4138 -0.9104
vn 0.7884 -0.4138 -0.4552
vn -0.7756 0.4450 -0.4478
vn -0.0000 0.4450 -0.8956
vn 0.7756 0.4450 -0.4478
vn -0.3314 0.9239 -0.1913
vn -0.0000 0.9239 -0.3827
vn 0.3314 0.9239 -0.1913
vn 0.3595 0.9098 -0.2075
vn -0.0000 0.9098 -0.4151
vn -0.3595 0.9098 -0.2075
vn -0.0000 0.6412 -0.7674
vn 0.6646 0.6412 -0.3837
vn 0.3730 0.9025 -0.2154
vn -0.6646 0.6412 -0.3837
vn -0.0000 0.9025 -0.4307
vn -0.3730 0.9025 -0.2154
vn 0.8084 -0.3587 -0.4667
vn -0.0000 -0.3587 -0.9334
vn -0.8084 -0.3587 -0.4667
vn -0.8189 0.3255 -0.4728
vn -0.0000 0.3255 -0.9456
vn 0.8189 0.3255 -0.4728
vn 0.2302 0.9640 -0.1329
vn 0.8381 -0.2520 -0.4839
vn 0.6210 0.6969 -0.3586
vn 0.6210 -0.6969 -0.3586
vn 0.8381 0.2520 -0.4839
vn -0.0000 -0.2520 -0.9677
vn -0.0000 0.6970 -0.7171
vn -0.0000 -0.6970 -0.7171
vn -0.0000 0.2520 -0.9677
vn -0.0000 0.9640 -0.2658
vn -0.8381 -0.2520 -0.4839
vn -0.6210 0.6969 -0.3586
vn -0.6210 -0.6969 -0.3586
vn -0.8381 0.2520 -0.4839
vn -0.2302 0.9640 -0.1329
vn -0.3730 0.9025 0.2154
vn -0.6210 -0.6969 0.3586
vn -0.3720 0.9033 -0.2137
vn -0.0000 0.6969 -0.7171
vn -0.0000 -0.6969 -0.7171
vn -0.6200 -0.6998 -0.3548
vt 0.519400 0.014536
vt 0.029564 0.429024
vt 0.488106 0.613128
vt 0.625081 0.497224
vt 0.519401 0.014536
vt 0.029565 0.429022
vt 0.488106 0.613129
vt 0.625082 0.497224
vt 0.057663 0.462230
vt 0.547499 0.047743
vt 0.547500 0.047743
vt 0.057664 0.462229
vt 0.551265 0.085781
vt 0.094553 0.472239
vt 0.094553 0.472238
vt 0.551266 0.085780
vt 0.563915 0.157108
vt 0.162803 0.496519
vt 0.563916 0.157108
vt 0.162804 0.496518
vt 0.565343 0.192392
vt 0.197364 0.503766
vt 0.565344 0.192392
vt 0.197364 0.503766
vt 0.544420 0.256645
vt 0.264194 0.493765
vt 0.544420 0.256645
vt 0.264194 0.493764
vt 0.160265 0.462868
vt 0.531149 0.149036
vt 0.160266 0.462867
vt 0.531149 0.149036
vt 0.485317 0.761595
vt 0.771962 0.519043
vt 0.485317 0.761595
vt 0.771962 0.519043
vt 0.441006 0.760467
vt 0.778183 0.475157
vt 0.439149 0.747427
vt 0.765630 0.471167
vt 0.441006 0.760467
vt 0.778184 0.475157
vt 0.439149 0.747427
vt 0.765630 0.471167
vt 0.568179 0.384079
vt 0.385938 0.538285
vt 0.568179 0.384079
vt 0.385939 0.538286
vt 0.748997 0.956760
vt 0.920801 0.811384
vt 0.642501 0.958435
vt 0.940076 0.706635
vt 0.575339 0.925743
vt 0.918950 0.634988
vt 0.554211 0.854097
vt 0.851787 0.602295
vt 0.745292 0.603971
vt 0.573487 0.749348
vt 0.748994 0.956762
vt 0.923937 0.808726
vt 0.642499 0.958437
vt 0.942345 0.704534
vt 0.575337 0.925744
vt 0.920397 0.633519
vt 0.554210 0.854097
vt 0.852478 0.601532
vt 0.573486 0.749348
vt 0.745292 0.603970
vt 0.029566 0.429021
vt 0.488106 0.613129
vt 0.519398 0.014537
vt 0.625081 0.497223
vt 0.519400 0.014536
vt 0.029564 0.429024
vt 0.488106 0.613128
vt 0.625081 0.497224
vt 0.519401 0.014536
vt 0.029565 0.429022
vt 0.488106 0.613129
vt 0.625082 0.497224
vt 0.057664 0.462229
vt 0.547497 0.047744
vt 0.547499 0.047743
vt 0.057663 0.462230
vt 0.547500 0.047743
vt 0.057664 0.462229
vt 0.094554 0.472237
vt 0.551263 0.085781
vt 0.551265 0.085781
vt 0.094553 0.472239
vt 0.551266 0.085780
vt 0.094553 0.472238
vt 0.162805 0.496518
vt 0.563914 0.157109
vt 0.563915 0.157108
vt 0.162803 0.496519
vt 0.563916 0.157108
vt 0.162804 0.496518
vt 0.197365 0.503766
vt 0.565342 0.192392
vt 0.565343 0.192392
vt 0.197364 0.503766
vt 0.565344 0.192392
vt 0.197364 0.503766
vt 0.264195 0.493764
vt 0.544419 0.256645
vt 0.544420 0.256645
vt 0.264194 0.493765
vt 0.544420 0.256645
vt 0.264194 0.493764
vt 0.531147 0.149036
vt 0.160265 0.462868
vt 0.531149 0.149036
vt 0.160266 0.462867
vt 0.531149 0.149036
vt 0.160266 0.462867
vt 0.485317 0.761595
vt 0.771962 0.519042
vt 0.771962 0.519043
vt 0.485317 0.761595
vt 0.771962 0.519043
vt 0.485317 0.761595
vt 0.573954 0.749256
vt 0.439149 0.747427
vt 0.441006 0.760467
vt 0.778184 0.475156
vt 0.765630 0.471166
vt 0.441006 0.760467
vt 0.778183 0.475157
vt 0.439149 0.747427
vt 0.765630 0.471167
vt 0.441006 0.760467
vt 0.778184 0.475157
vt 0.439149 0.747427
vt 0.765630 0.471167
vt 0.385939 0.538285
vt 0.568178 0.384079
vt 0.568179 0.384079
vt 0.385938 0.538285
vt 0.568179 0.384079
vt 0.385939 0.538286
vt 0.752372 0.954385
vt 0.645186 0.956823
vt 0.577267 0.924837
vt 0.555319 0.853821
vt 0.877965 0.934969
vt 0.881992 0.931799
vt 0.920803 0.811382
vt 0.940079 0.706633
vt 0.918951 0.634986
vt 0.851788 0.602294
vt 0.745293 0.603970
vt 0.920801 0.811384
vt 0.748997 0.956760
vt 0.642501 0.958435
vt 0.940076 0.706635
vt 0.918950 0.634988
vt 0.575339 0.925743
vt 0.554211 0.854097
vt 0.851787 0.602295
vt 0.745292 0.603971
vt 0.573487 0.749348
vt 0.748994 0.956762
vt 0.923937 0.808726
vt 0.642499 0.958437
vt 0.942345 0.704534
vt 0.575337 0.925744
vt 0.920397 0.633519
vt 0.852478 0.601532
vt 0.554210 0.854097
vt 0.573486 0.749348
vt 0.745292 0.603970
vt 0.156107 0.081891
s 0
f 38/72/1 23/46/1 81/137/1
f 2/4/2 24/48/2 23/45/2
f 4/8/3 80/136/3 24/47/3
f 6/11/4 35/69/4 3/5/4
f 5/10/5 3/6/5 1/1/5
f 44/82/6 1/2/6 37/71/6
f 8/16/7 43/81/7 6/11/7
f 5/10/8 8/15/8 6/12/8
f 44/82/9 7/14/9 5/9/9
f 16/32/10 51/93/10 66/116/10
f 9/17/11 16/31/11 15/30/11
f 52/94/12 15/29/12 63/111/12
f 12/23/13 51/93/13 10/19/13
f 11/21/14 10/20/14 9/17/14
f 56/100/15 9/18/15 52/94/15
f 12/23/16 59/105/16 55/99/16
f 13/25/17 12/24/17 11/21/17
f 60/106/18 11/22/18 56/100/18
f 63/111/19 7/14/19 48/88/19
f 15/30/20 8/15/20 7/13/20
f 8/16/21 66/116/21 47/87/21
f 2/4/22 22/43/22 4/7/22
f 21/41/23 17/34/23 18/35/23
f 19/37/24 68/118/24 17/33/24
f 17/33/25 93/152/25 29/58/25
f 4/8/22 72/124/22 36/70/22
f 38/72/22 20/39/22 2/3/22
f 21/42/26 67/117/26 73/125/26
f 18/35/27 29/57/27 34/67/27
f 67/117/28 34/68/28 71/123/28
f 75/127/29 19/37/29 20/39/29
f 22/43/30 19/38/30 21/41/30
f 22/44/31 73/125/31 72/124/31
f 24/47/32 59/105/32 14/27/32
f 23/45/33 14/28/33 13/25/33
f 81/137/34 13/26/34 60/106/34
f 89/148/35 88/146/35 25/49/35
f 92/151/36 27/53/36 28/55/36
f 90/149/37 25/49/37 26/51/37
f 92/151/38 29/58/38 93/152/38
f 90/149/39 27/53/39 91/150/39
f 28/56/40 32/63/40 33/65/40
f 25/50/41 31/61/41 26/52/41
f 28/56/42 34/67/42 29/57/42
f 26/52/43 32/63/43 27/54/43
f 25/50/44 88/146/44 30/59/44
f 32/64/45 87/145/45 33/66/45
f 30/60/46 85/143/46 31/62/46
f 34/68/47 87/145/47 71/123/47
f 31/62/48 86/144/48 32/64/48
f 30/60/49 88/147/49 84/142/49
f 35/69/22 104/173/22 3/5/22
f 3/6/22 104/173/22 1/1/22
f 37/71/22 1/2/22 104/173/22
f 82/139/50 38/72/50 81/137/50
f 83/141/51 40/76/51 82/138/51
f 80/136/52 42/80/52 83/140/52
f 35/69/53 46/85/53 41/77/53
f 41/78/54 45/83/54 39/73/54
f 39/74/55 44/82/55 37/71/55
f 46/85/56 47/87/56 50/91/56
f 46/86/57 49/89/57 45/83/57
f 45/84/58 48/88/58 44/82/58
f 65/115/59 51/93/59 54/97/59
f 65/114/60 53/95/60 64/113/60
f 64/112/61 52/94/61 63/111/61
f 51/93/62 58/103/62 54/97/62
f 54/98/63 57/101/63 53/95/63
f 52/94/64 57/102/64 56/100/64
f 55/99/65 62/109/65 58/103/65
f 57/101/66 62/110/66 61/107/66
f 56/100/67 61/108/67 60/106/67
f 49/90/68 63/111/68 48/88/68
f 50/92/69 64/113/69 49/89/69
f 47/87/70 65/115/70 50/91/70
f 79/134/22 40/76/22 42/79/22
f 78/132/71 69/119/71 76/129/71
f 69/120/72 74/126/72 76/128/72
f 69/120/73 93/152/73 68/118/73
f 72/124/22 42/80/22 36/70/22
f 77/130/22 38/72/22 40/75/22
f 67/117/74 78/133/74 73/125/74
f 70/122/75 98/161/75 69/119/75
f 67/117/76 103/172/76 70/121/76
f 76/128/77 75/127/77 77/130/77
f 78/132/78 77/131/78 79/134/78
f 72/124/79 78/133/79 79/135/79
f 59/105/80 83/140/80 62/109/80
f 62/110/81 82/138/81 61/107/81
f 61/108/82 81/137/82 60/106/82
f 89/148/83 94/154/83 88/146/83
f 92/151/84 96/158/84 91/150/84
f 90/149/85 94/154/85 89/148/85
f 98/162/86 92/151/86 93/152/86
f 96/158/87 90/149/87 91/150/87
f 97/160/88 101/167/88 96/157/88
f 95/156/89 99/163/89 94/153/89
f 103/171/90 97/160/90 98/161/90
f 101/167/91 95/156/91 96/157/91
f 94/153/92 99/163/92 88/146/92
f 87/145/93 101/168/93 102/169/93
f 85/143/94 99/164/94 100/166/94
f 103/172/95 87/145/95 102/169/95
f 86/144/96 100/166/96 101/168/96
f 99/164/97 84/142/97 88/147/97
f 35/69/22 41/77/22 104/173/22
f 41/78/22 39/73/22 104/173/22
f 37/71/22 104/173/22 39/74/22
f 38/72/1 2/3/1 23/46/1
f 2/4/2 4/7/2 24/48/2
f 4/8/3 36/70/3 80/136/3
f 6/11/4 43/81/4 35/69/4
f 5/10/5 6/12/5 3/6/5
f 44/82/6 5/9/6 1/2/6
f 8/16/7 47/87/7 43/81/7
f 5/10/8 7/13/8 8/15/8
f 44/82/9 48/88/9 7/14/9
f 16/32/10 10/19/10 51/93/10
f 9/17/11 10/20/11 16/31/11
f 52/94/12 9/18/12 15/29/12
f 12/23/13 55/99/13 51/93/13
f 11/21/14 12/24/14 10/20/14
f 56/100/15 11/22/15 9/18/15
f 12/23/16 14/27/16 59/105/16
f 13/25/17 14/28/17 12/24/17
f 60/106/18 13/26/18 11/22/18
f 63/111/19 15/29/19 7/14/19
f 15/30/20 16/31/20 8/15/20
f 8/16/21 16/32/21 66/116/21
f 2/4/22 20/40/22 22/43/22
f 21/41/23 19/38/23 17/34/23
f 19/37/24 74/126/24 68/118/24
f 17/33/25 68/118/25 93/152/25
f 4/8/22 22/44/22 72/124/22
f 38/72/22 75/127/22 20/39/22
f 21/42/26 18/36/26 67/117/26
f 18/35/27 17/34/27 29/57/27
f 67/117/98 18/36/98 34/68/98
f 75/127/29 74/126/29 19/37/29
f 22/43/30 20/40/30 19/38/30
f 22/44/31 21/42/31 73/125/31
f 24/47/32 80/136/32 59/105/32
f 23/45/33 24/48/33 14/28/33
f 81/137/34 23/46/34 13/26/34
f 92/151/36 91/150/36 27/53/36
f 90/149/37 89/148/37 25/49/37
f 92/151/38 28/55/38 29/58/38
f 90/149/39 26/51/39 27/53/39
f 28/56/40 27/54/40 32/63/40
f 25/50/41 30/59/41 31/61/41
f 28/56/42 33/65/42 34/67/42
f 26/52/43 31/61/43 32/63/43
f 32/64/45 86/144/45 87/145/45
f 30/60/46 84/142/46 85/143/46
f 34/68/99 33/66/99 87/145/99
f 31/62/48 85/143/48 86/144/48
f 82/139/50 40/75/50 38/72/50
f 83/141/51 42/79/51 40/76/51
f 80/136/52 36/70/52 42/80/52
f 35/69/53 43/81/53 46/85/53
f 41/78/54 46/86/54 45/83/54
f 39/74/55 45/84/55 44/82/55
f 46/85/56 43/81/56 47/87/56
f 46/86/57 50/92/57 49/89/57
f 45/84/58 49/90/58 48/88/58
f 65/115/59 66/116/59 51/93/59
f 65/114/60 54/98/60 53/95/60
f 64/112/61 53/96/61 52/94/61
f 51/93/62 55/99/62 58/103/62
f 54/98/63 58/104/63 57/101/63
f 52/94/64 53/96/64 57/102/64
f 55/99/65 59/105/65 62/109/65
f 57/101/66 58/104/66 62/110/66
f 56/100/67 57/102/67 61/108/67
f 49/90/68 64/112/68 63/111/68
f 50/92/69 65/114/69 64/113/69
f 47/87/70 66/116/70 65/115/70
f 79/134/22 77/131/22 40/76/22
f 78/132/71 70/122/71 69/119/71
f 69/120/72 68/118/72 74/126/72
f 69/120/73 98/162/73 93/152/73
f 72/124/22 79/135/22 42/80/22
f 77/130/22 75/127/22 38/72/22
f 67/117/74 70/121/74 78/133/74
f 70/122/75 103/171/75 98/161/75
f 67/117/100 71/123/100 103/172/100
f 76/128/77 74/126/77 75/127/77
f 78/132/78 76/129/78 77/131/78
f 72/124/79 73/125/79 78/133/79
f 59/105/80 80/136/80 83/140/80
f 62/110/81 83/141/81 82/138/81
f 61/108/82 82/139/82 81/137/82
f 92/151/84 97/159/84 96/158/84
f 90/149/85 95/155/85 94/154/85
f 98/162/86 97/159/86 92/151/86
f 96/158/87 95/155/87 90/149/87
f 97/160/88 102/170/88 101/167/88
f 95/156/101 100/165/101 99/163/101
f 103/171/102 102/170/102 97/160/102
f 101/167/91 100/165/91 95/156/91
f 87/145/93 86/144/93 101/168/93
f 85/143/94 84/142/94 99/164/94
f 103/172/103 71/123/103 87/145/103
f 86/144/96 85/143/96 100/166/96
